<mxfile host="app.diagrams.net" modified="2022-10-08T01:33:37.327Z" agent="5.0 (Windows NT 10.0; Win64; x64) AppleWebKit/537.36 (KHTML, like Gecko) Chrome/106.0.0.0 Safari/537.36 Edg/106.0.1370.34" etag="y5p0aeBqHp25mApPCdae" version="20.4.0" type="github">
  <diagram id="H-XppuKHptiDzfwQs7Fx" name="Página-1">
    <mxGraphModel dx="867" dy="489" grid="1" gridSize="10" guides="1" tooltips="1" connect="1" arrows="1" fold="1" page="1" pageScale="1" pageWidth="827" pageHeight="1169" math="0" shadow="0">
      <root>
        <mxCell id="0" />
        <mxCell id="1" parent="0" />
        <mxCell id="QGpVAQ2C3rYsjJZ4pZRN-18" style="edgeStyle=orthogonalEdgeStyle;rounded=0;orthogonalLoop=1;jettySize=auto;html=1;exitX=0.5;exitY=0.5;exitDx=0;exitDy=0;exitPerimeter=0;entryX=0.625;entryY=0.013;entryDx=0;entryDy=0;entryPerimeter=0;" edge="1" parent="1" source="QGpVAQ2C3rYsjJZ4pZRN-1" target="QGpVAQ2C3rYsjJZ4pZRN-5">
          <mxGeometry relative="1" as="geometry" />
        </mxCell>
        <mxCell id="QGpVAQ2C3rYsjJZ4pZRN-1" value="Atendente" style="shape=umlActor;verticalLabelPosition=bottom;verticalAlign=top;html=1;outlineConnect=0;" vertex="1" parent="1">
          <mxGeometry x="110" y="200" width="30" height="60" as="geometry" />
        </mxCell>
        <mxCell id="QGpVAQ2C3rYsjJZ4pZRN-17" style="edgeStyle=orthogonalEdgeStyle;rounded=0;orthogonalLoop=1;jettySize=auto;html=1;exitX=0.5;exitY=0.5;exitDx=0;exitDy=0;exitPerimeter=0;entryX=0.5;entryY=0;entryDx=0;entryDy=0;" edge="1" parent="1" source="QGpVAQ2C3rYsjJZ4pZRN-3" target="QGpVAQ2C3rYsjJZ4pZRN-15">
          <mxGeometry relative="1" as="geometry" />
        </mxCell>
        <mxCell id="QGpVAQ2C3rYsjJZ4pZRN-3" value="Gerente&lt;br&gt;" style="shape=umlActor;verticalLabelPosition=bottom;verticalAlign=top;html=1;outlineConnect=0;" vertex="1" parent="1">
          <mxGeometry x="430" y="200" width="30" height="60" as="geometry" />
        </mxCell>
        <mxCell id="QGpVAQ2C3rYsjJZ4pZRN-34" style="edgeStyle=orthogonalEdgeStyle;rounded=0;orthogonalLoop=1;jettySize=auto;html=1;exitX=0;exitY=1;exitDx=0;exitDy=0;entryX=0.5;entryY=0;entryDx=0;entryDy=0;strokeColor=default;" edge="1" parent="1" source="QGpVAQ2C3rYsjJZ4pZRN-5" target="QGpVAQ2C3rYsjJZ4pZRN-22">
          <mxGeometry relative="1" as="geometry" />
        </mxCell>
        <mxCell id="QGpVAQ2C3rYsjJZ4pZRN-35" style="edgeStyle=orthogonalEdgeStyle;rounded=0;orthogonalLoop=1;jettySize=auto;html=1;exitX=1;exitY=1;exitDx=0;exitDy=0;entryX=0.5;entryY=0;entryDx=0;entryDy=0;strokeColor=default;" edge="1" parent="1" source="QGpVAQ2C3rYsjJZ4pZRN-5" target="QGpVAQ2C3rYsjJZ4pZRN-23">
          <mxGeometry relative="1" as="geometry" />
        </mxCell>
        <mxCell id="QGpVAQ2C3rYsjJZ4pZRN-5" value="Venda a prazo" style="ellipse;whiteSpace=wrap;html=1;" vertex="1" parent="1">
          <mxGeometry x="160" y="340" width="120" height="80" as="geometry" />
        </mxCell>
        <mxCell id="QGpVAQ2C3rYsjJZ4pZRN-12" style="edgeStyle=orthogonalEdgeStyle;rounded=0;orthogonalLoop=1;jettySize=auto;html=1;exitX=0.5;exitY=0.5;exitDx=0;exitDy=0;exitPerimeter=0;entryX=0.5;entryY=0;entryDx=0;entryDy=0;entryPerimeter=0;" edge="1" parent="1" source="QGpVAQ2C3rYsjJZ4pZRN-8" target="QGpVAQ2C3rYsjJZ4pZRN-1">
          <mxGeometry relative="1" as="geometry" />
        </mxCell>
        <mxCell id="QGpVAQ2C3rYsjJZ4pZRN-8" value="Cliente 1" style="shape=umlActor;verticalLabelPosition=bottom;verticalAlign=top;html=1;outlineConnect=0;" vertex="1" parent="1">
          <mxGeometry x="240" y="30" width="30" height="60" as="geometry" />
        </mxCell>
        <mxCell id="QGpVAQ2C3rYsjJZ4pZRN-13" style="edgeStyle=orthogonalEdgeStyle;rounded=0;orthogonalLoop=1;jettySize=auto;html=1;exitX=0.5;exitY=0.5;exitDx=0;exitDy=0;exitPerimeter=0;entryX=0.5;entryY=0;entryDx=0;entryDy=0;entryPerimeter=0;" edge="1" parent="1" source="QGpVAQ2C3rYsjJZ4pZRN-11" target="QGpVAQ2C3rYsjJZ4pZRN-3">
          <mxGeometry relative="1" as="geometry" />
        </mxCell>
        <mxCell id="QGpVAQ2C3rYsjJZ4pZRN-14" value="Crédito" style="edgeLabel;html=1;align=center;verticalAlign=middle;resizable=0;points=[];" vertex="1" connectable="0" parent="QGpVAQ2C3rYsjJZ4pZRN-13">
          <mxGeometry x="0.56" y="1" relative="1" as="geometry">
            <mxPoint as="offset" />
          </mxGeometry>
        </mxCell>
        <mxCell id="QGpVAQ2C3rYsjJZ4pZRN-11" value="Cliente 2" style="shape=umlActor;verticalLabelPosition=bottom;verticalAlign=top;html=1;outlineConnect=0;" vertex="1" parent="1">
          <mxGeometry x="370" y="30" width="30" height="60" as="geometry" />
        </mxCell>
        <mxCell id="QGpVAQ2C3rYsjJZ4pZRN-15" value="Venda a vísta" style="ellipse;whiteSpace=wrap;html=1;" vertex="1" parent="1">
          <mxGeometry x="294" y="340" width="120" height="80" as="geometry" />
        </mxCell>
        <mxCell id="QGpVAQ2C3rYsjJZ4pZRN-20" value="" style="endArrow=classic;html=1;rounded=0;entryX=1;entryY=0;entryDx=0;entryDy=0;exitX=0.5;exitY=0.5;exitDx=0;exitDy=0;exitPerimeter=0;" edge="1" parent="1" source="QGpVAQ2C3rYsjJZ4pZRN-3" target="QGpVAQ2C3rYsjJZ4pZRN-5">
          <mxGeometry width="50" height="50" relative="1" as="geometry">
            <mxPoint x="390" y="290" as="sourcePoint" />
            <mxPoint x="440" y="240" as="targetPoint" />
          </mxGeometry>
        </mxCell>
        <mxCell id="QGpVAQ2C3rYsjJZ4pZRN-21" value="" style="endArrow=classic;html=1;rounded=0;exitX=0.5;exitY=0.5;exitDx=0;exitDy=0;exitPerimeter=0;entryX=0.25;entryY=0.075;entryDx=0;entryDy=0;entryPerimeter=0;" edge="1" parent="1" source="QGpVAQ2C3rYsjJZ4pZRN-1" target="QGpVAQ2C3rYsjJZ4pZRN-15">
          <mxGeometry width="50" height="50" relative="1" as="geometry">
            <mxPoint x="390" y="290" as="sourcePoint" />
            <mxPoint x="440" y="240" as="targetPoint" />
          </mxGeometry>
        </mxCell>
        <mxCell id="QGpVAQ2C3rYsjJZ4pZRN-37" style="edgeStyle=orthogonalEdgeStyle;rounded=0;orthogonalLoop=1;jettySize=auto;html=1;strokeColor=default;targetPortConstraint=west;" edge="1" parent="1" source="QGpVAQ2C3rYsjJZ4pZRN-22" target="QGpVAQ2C3rYsjJZ4pZRN-36">
          <mxGeometry relative="1" as="geometry">
            <mxPoint x="155" y="750" as="targetPoint" />
          </mxGeometry>
        </mxCell>
        <mxCell id="QGpVAQ2C3rYsjJZ4pZRN-22" value="Credito" style="ellipse;whiteSpace=wrap;html=1;" vertex="1" parent="1">
          <mxGeometry x="110" y="440" width="90" height="80" as="geometry" />
        </mxCell>
        <mxCell id="QGpVAQ2C3rYsjJZ4pZRN-23" value="Boleto" style="ellipse;whiteSpace=wrap;html=1;" vertex="1" parent="1">
          <mxGeometry x="220" y="440" width="90" height="80" as="geometry" />
        </mxCell>
        <mxCell id="QGpVAQ2C3rYsjJZ4pZRN-29" value="sim" style="edgeStyle=orthogonalEdgeStyle;rounded=0;orthogonalLoop=1;jettySize=auto;html=1;entryX=1;entryY=0.5;entryDx=0;entryDy=0;strokeColor=default;" edge="1" parent="1" source="QGpVAQ2C3rYsjJZ4pZRN-24" target="QGpVAQ2C3rYsjJZ4pZRN-47">
          <mxGeometry x="0.6508" relative="1" as="geometry">
            <mxPoint as="offset" />
          </mxGeometry>
        </mxCell>
        <mxCell id="QGpVAQ2C3rYsjJZ4pZRN-30" value="&amp;lt;&amp;lt;extends&amp;gt;&amp;gt;" style="edgeLabel;html=1;align=center;verticalAlign=middle;resizable=0;points=[];" vertex="1" connectable="0" parent="QGpVAQ2C3rYsjJZ4pZRN-29">
          <mxGeometry x="0.1029" y="1" relative="1" as="geometry">
            <mxPoint x="-1" y="8" as="offset" />
          </mxGeometry>
        </mxCell>
        <mxCell id="QGpVAQ2C3rYsjJZ4pZRN-32" style="edgeStyle=orthogonalEdgeStyle;rounded=0;orthogonalLoop=1;jettySize=auto;html=1;strokeColor=default;entryX=0.992;entryY=0.425;entryDx=0;entryDy=0;entryPerimeter=0;" edge="1" parent="1" source="QGpVAQ2C3rYsjJZ4pZRN-24" target="QGpVAQ2C3rYsjJZ4pZRN-15">
          <mxGeometry relative="1" as="geometry">
            <mxPoint x="465" y="360" as="targetPoint" />
          </mxGeometry>
        </mxCell>
        <mxCell id="QGpVAQ2C3rYsjJZ4pZRN-33" value="&amp;lt;&amp;lt;extends&amp;gt;&amp;gt;" style="edgeLabel;html=1;align=center;verticalAlign=middle;resizable=0;points=[];" vertex="1" connectable="0" parent="QGpVAQ2C3rYsjJZ4pZRN-32">
          <mxGeometry x="0.3822" y="4" relative="1" as="geometry">
            <mxPoint as="offset" />
          </mxGeometry>
        </mxCell>
        <mxCell id="QGpVAQ2C3rYsjJZ4pZRN-38" style="edgeStyle=orthogonalEdgeStyle;rounded=0;orthogonalLoop=1;jettySize=auto;html=1;entryX=1.008;entryY=0.613;entryDx=0;entryDy=0;entryPerimeter=0;strokeColor=default;sourcePortConstraint=south;" edge="1" parent="1" source="QGpVAQ2C3rYsjJZ4pZRN-24" target="QGpVAQ2C3rYsjJZ4pZRN-36">
          <mxGeometry relative="1" as="geometry" />
        </mxCell>
        <mxCell id="QGpVAQ2C3rYsjJZ4pZRN-24" value="Aplicar desconto" style="ellipse;whiteSpace=wrap;html=1;" vertex="1" parent="1">
          <mxGeometry x="420" y="560" width="90" height="80" as="geometry" />
        </mxCell>
        <mxCell id="QGpVAQ2C3rYsjJZ4pZRN-40" style="edgeStyle=orthogonalEdgeStyle;rounded=0;orthogonalLoop=1;jettySize=auto;html=1;entryX=0.5;entryY=0;entryDx=0;entryDy=0;strokeColor=default;" edge="1" parent="1" source="QGpVAQ2C3rYsjJZ4pZRN-36" target="QGpVAQ2C3rYsjJZ4pZRN-39">
          <mxGeometry relative="1" as="geometry" />
        </mxCell>
        <mxCell id="QGpVAQ2C3rYsjJZ4pZRN-41" value="&amp;lt;&amp;lt;include&amp;gt;&amp;gt;" style="edgeLabel;html=1;align=center;verticalAlign=middle;resizable=0;points=[];" vertex="1" connectable="0" parent="QGpVAQ2C3rYsjJZ4pZRN-40">
          <mxGeometry x="-0.1494" y="1" relative="1" as="geometry">
            <mxPoint as="offset" />
          </mxGeometry>
        </mxCell>
        <mxCell id="QGpVAQ2C3rYsjJZ4pZRN-36" value="Confirmar pagamento" style="ellipse;whiteSpace=wrap;html=1;" vertex="1" parent="1">
          <mxGeometry x="230" y="660" width="120" height="80" as="geometry" />
        </mxCell>
        <mxCell id="QGpVAQ2C3rYsjJZ4pZRN-39" value="Emitir nota fiscal" style="ellipse;whiteSpace=wrap;html=1;" vertex="1" parent="1">
          <mxGeometry x="294" y="850" width="120" height="80" as="geometry" />
        </mxCell>
        <mxCell id="QGpVAQ2C3rYsjJZ4pZRN-42" value="Produto disponivel?" style="rhombus;whiteSpace=wrap;html=1;" vertex="1" parent="1">
          <mxGeometry x="320" y="980" width="80" height="80" as="geometry" />
        </mxCell>
        <mxCell id="QGpVAQ2C3rYsjJZ4pZRN-44" value="" style="endArrow=none;html=1;rounded=0;strokeColor=default;exitX=0.413;exitY=0.075;exitDx=0;exitDy=0;entryX=0.5;entryY=1;entryDx=0;entryDy=0;exitPerimeter=0;" edge="1" parent="1" source="QGpVAQ2C3rYsjJZ4pZRN-42" target="QGpVAQ2C3rYsjJZ4pZRN-39">
          <mxGeometry width="50" height="50" relative="1" as="geometry">
            <mxPoint x="390" y="950" as="sourcePoint" />
            <mxPoint x="440" y="900" as="targetPoint" />
          </mxGeometry>
        </mxCell>
        <mxCell id="QGpVAQ2C3rYsjJZ4pZRN-45" value="sim" style="endArrow=none;html=1;rounded=0;strokeColor=default;exitX=1;exitY=0.5;exitDx=0;exitDy=0;" edge="1" parent="1" source="QGpVAQ2C3rYsjJZ4pZRN-42">
          <mxGeometry width="50" height="50" relative="1" as="geometry">
            <mxPoint x="390" y="950" as="sourcePoint" />
            <mxPoint x="460" y="1020" as="targetPoint" />
          </mxGeometry>
        </mxCell>
        <mxCell id="QGpVAQ2C3rYsjJZ4pZRN-46" value="não" style="endArrow=none;html=1;rounded=0;strokeColor=default;exitX=0.5;exitY=1;exitDx=0;exitDy=0;" edge="1" parent="1" source="QGpVAQ2C3rYsjJZ4pZRN-42">
          <mxGeometry width="50" height="50" relative="1" as="geometry">
            <mxPoint x="390" y="950" as="sourcePoint" />
            <mxPoint x="360" y="1110" as="targetPoint" />
          </mxGeometry>
        </mxCell>
        <mxCell id="QGpVAQ2C3rYsjJZ4pZRN-47" value="parcelado em até 6x?" style="rhombus;whiteSpace=wrap;html=1;" vertex="1" parent="1">
          <mxGeometry x="237.5" y="540" width="55" height="60" as="geometry" />
        </mxCell>
        <mxCell id="QGpVAQ2C3rYsjJZ4pZRN-48" value="" style="endArrow=none;html=1;rounded=0;strokeColor=default;exitX=0.5;exitY=0;exitDx=0;exitDy=0;entryX=0.5;entryY=1;entryDx=0;entryDy=0;" edge="1" parent="1" source="QGpVAQ2C3rYsjJZ4pZRN-47" target="QGpVAQ2C3rYsjJZ4pZRN-23">
          <mxGeometry width="50" height="50" relative="1" as="geometry">
            <mxPoint x="390" y="520" as="sourcePoint" />
            <mxPoint x="440" y="470" as="targetPoint" />
          </mxGeometry>
        </mxCell>
        <mxCell id="QGpVAQ2C3rYsjJZ4pZRN-49" value="" style="endArrow=none;html=1;rounded=0;strokeColor=default;" edge="1" parent="1">
          <mxGeometry width="50" height="50" relative="1" as="geometry">
            <mxPoint x="390" y="520" as="sourcePoint" />
            <mxPoint x="440" y="470" as="targetPoint" />
          </mxGeometry>
        </mxCell>
        <mxCell id="QGpVAQ2C3rYsjJZ4pZRN-50" value="não" style="endArrow=none;html=1;rounded=0;strokeColor=default;exitX=0.5;exitY=1;exitDx=0;exitDy=0;entryX=0.5;entryY=0;entryDx=0;entryDy=0;" edge="1" parent="1" source="QGpVAQ2C3rYsjJZ4pZRN-47" target="QGpVAQ2C3rYsjJZ4pZRN-36">
          <mxGeometry width="50" height="50" relative="1" as="geometry">
            <mxPoint x="390" y="520" as="sourcePoint" />
            <mxPoint x="440" y="470" as="targetPoint" />
          </mxGeometry>
        </mxCell>
        <mxCell id="QGpVAQ2C3rYsjJZ4pZRN-51" value="solicitar entrega pelo sistema" style="ellipse;whiteSpace=wrap;html=1;" vertex="1" parent="1">
          <mxGeometry x="460" y="980" width="120" height="80" as="geometry" />
        </mxCell>
        <mxCell id="QGpVAQ2C3rYsjJZ4pZRN-53" value="Retirar sistema" style="ellipse;whiteSpace=wrap;html=1;" vertex="1" parent="1">
          <mxGeometry x="300" y="1110" width="120" height="80" as="geometry" />
        </mxCell>
      </root>
    </mxGraphModel>
  </diagram>
</mxfile>
